<svg width="8" height="8" viewBox="0 0 8 8" fill="none" xmlns="http://www.w3.org/2000/svg">
<path d="M2.09503 4.23412L4.74621 6.90415C4.80753 6.96595 4.88938 7 4.97666 7C5.06394 7 5.1458 6.96595 5.20711 6.90415L5.40236 6.70756C5.5294 6.57947 5.5294 6.37127 5.40236 6.24337L3.1761 4.00124L5.40483 1.75663C5.46614 1.69482 5.5 1.61243 5.5 1.52458C5.5 1.43663 5.46614 1.35424 5.40483 1.29239L5.20958 1.09585C5.14822 1.03405 5.06641 1 4.97913 1C4.89185 1 4.81 1.03405 4.74868 1.09585L2.09503 3.76832C2.03357 3.83032 1.99981 3.9131 2 4.0011C1.99981 4.08944 2.03357 4.17217 2.09503 4.23412Z" fill="white"/>
</svg>
