<svg width="25" height="24" viewBox="0 0 25 24" fill="none" xmlns="http://www.w3.org/2000/svg">
<path fill-rule="evenodd" clip-rule="evenodd" d="M18.333 7H6.33301V19C6.33301 20.1046 7.22844 21 8.33301 21H16.333C17.4376 21 18.333 20.1046 18.333 19V7ZM17.333 8H7.33301V19C7.33301 19.5523 7.78072 20 8.33301 20H16.333C16.8853 20 17.333 19.5523 17.333 19V8Z" fill="#fff"/>
<path fill-rule="evenodd" clip-rule="evenodd" d="M9.33301 5H10.333V4H14.333V5H15.333V4C15.333 3.44772 14.8853 3 14.333 3H10.333C9.78072 3 9.33301 3.44772 9.33301 4V5Z" fill="#fff"/>
<path d="M5.83301 6H18.833C19.1091 6 19.333 5.77614 19.333 5.5C19.333 5.22386 19.1091 5 18.833 5H15.333H14.333H10.333H9.33301H5.83301C5.55687 5 5.33301 5.22386 5.33301 5.5C5.33301 5.77614 5.55687 6 5.83301 6Z" fill="#fff"/>
<path d="M11.833 9.5C11.833 9.22386 12.0569 9 12.333 9C12.6092 9 12.833 9.22386 12.833 9.5V18.5C12.833 18.7761 12.6092 19 12.333 19C12.0569 19 11.833 18.7761 11.833 18.5V9.5Z" fill="#fff"/>
<path d="M9.33301 9.5C9.33301 9.22386 9.55687 9 9.83301 9C10.1092 9 10.333 9.22386 10.333 9.5V18.5C10.333 18.7761 10.1092 19 9.83301 19C9.55687 19 9.33301 18.7761 9.33301 18.5V9.5Z" fill="#fff"/>
<path d="M14.833 9C14.5569 9 14.333 9.22386 14.333 9.5V18.5C14.333 18.7761 14.5569 19 14.833 19C15.1091 19 15.333 18.7761 15.333 18.5V9.5C15.333 9.22386 15.1091 9 14.833 9Z" fill="#fff"/>
</svg>
