<svg width="24" height="22" viewBox="0 0 24 22" fill="none" xmlns="http://www.w3.org/2000/svg">
<path d="M17 5.23498C17 7.61689 13.9542 11.8616 12.6167 13.5717C12.2958 14.0297 11.7042 14.0297 11.3833 13.5717C10.0458 11.8616 7 7.61689 7 5.23498C7 2.34396 9.2375 0 12 0C14.7625 0 17 2.34396 17 5.23498ZM12 6.63097C12.9208 6.63097 13.6667 5.85009 13.6667 4.88598C13.6667 3.92231 12.9208 3.14099 12 3.14099C11.0792 3.14099 10.3333 3.92231 10.3333 4.88598C10.3333 5.85009 11.0792 6.63097 12 6.63097ZM17.7333 7.84374C17.7542 7.79139 17.775 7.73904 17.7958 7.68233L22.6292 5.65814C23.2875 5.3833 24 5.88935 24 6.63097V18.4446C24 18.8721 23.75 19.256 23.3708 19.4174L17.3333 21.9433V8.74241C17.4792 8.4414 17.6125 8.14476 17.7333 7.84374ZM6.26667 7.84374C6.3875 8.14476 6.52083 8.4414 6.66667 8.74241V19.7097L1.37125 21.9302C0.714583 22.1658 0 21.699 0 20.9574V9.14376C0 8.71624 0.248958 8.29308 0.62875 8.17093L5.73333 6.03331C5.83333 6.65279 6.0375 7.2679 6.26667 7.84374ZM13.6583 14.4442C14.2375 13.7244 15.1458 12.4898 16 11.1243V22L8 19.605V11.1243C8.85417 12.4898 9.7625 13.7244 10.3417 14.4442C11.1958 15.6002 12.8042 15.6002 13.6583 14.4442Z" fill="white"/>
</svg>
