<svg width="42" height="42" viewBox="0 0 42 42" fill="none" xmlns="http://www.w3.org/2000/svg">
<circle cx="21" cy="21" r="19.5" fill="#AAC57F" stroke="white" stroke-width="3"/>
<path d="M19.6589 22.5929C19.8816 22.2255 20.0866 21.8604 20.3168 21.5099C21.2993 20.0132 22.5453 18.7257 23.9458 17.5652C25.5972 16.1974 27.4153 15.0544 29.359 14.0838C29.4549 14.0361 29.5867 13.9804 29.674 14.0068C29.7902 14.0422 29.9159 14.1381 29.9699 14.2397C30.0456 14.3818 29.9699 14.5207 29.8381 14.6303C29.4191 14.9798 28.9889 15.3189 28.5906 15.6887C25.1555 18.8811 22.6887 22.6203 21.3291 26.9817C21.2584 27.2079 21.1927 27.4355 21.1337 27.6646C21.0923 27.8261 21.0145 27.9499 20.8307 27.9905C20.653 28.0292 20.5314 27.9442 20.4188 27.8299C18.9632 26.3554 17.5067 24.8818 16.0501 23.4077C15.1035 22.4494 14.1569 21.4915 13.2102 20.5332C13.1759 20.4987 13.1411 20.4642 13.1078 20.4293C12.9952 20.3122 12.9694 20.178 13.0371 20.0359C13.1027 19.8979 13.2289 19.8337 13.3859 19.8332C14.5598 19.8318 15.7336 19.8266 16.9074 19.8408C17.0296 19.8422 17.1795 19.9371 17.2674 20.0297C18.0166 20.8204 18.7542 21.6209 19.4954 22.4182C19.5489 22.4768 19.6029 22.5334 19.6589 22.5929Z" fill="white"/>
</svg>
