<svg width="14" height="14" viewBox="0 0 14 14" fill="none" xmlns="http://www.w3.org/2000/svg">
<path d="M7 14C10.866 14 14 10.866 14 7C14 3.13401 10.866 0 7 0C3.13401 0 0 3.13401 0 7C0 10.866 3.13401 14 7 14Z" fill="url(#paint0_linear_7_5592)"/>
<path fill-rule="evenodd" clip-rule="evenodd" d="M3.16859 6.92611C5.20924 6.03704 6.56998 5.45091 7.25084 5.16771C9.19481 4.35915 9.59875 4.21869 9.86204 4.21405C9.91994 4.21303 10.0494 4.22738 10.1333 4.29544C10.2041 4.3529 10.2236 4.43053 10.2329 4.48501C10.2422 4.53949 10.2538 4.6636 10.2446 4.76057C10.1393 5.86744 9.68345 8.55351 9.45155 9.79322C9.35342 10.3178 9.16021 10.4937 8.97316 10.5109C8.56666 10.5483 8.25798 10.2422 7.86426 9.98415C7.24817 9.58029 6.90012 9.32889 6.3021 8.9348C5.61098 8.47937 6.059 8.22905 6.45287 7.81996C6.55595 7.7129 8.34701 6.0838 8.38167 5.93601C8.38601 5.91753 8.39003 5.84863 8.3491 5.81225C8.30817 5.77587 8.24776 5.78831 8.20417 5.79821C8.14238 5.81223 7.15816 6.46276 5.25153 7.74979C4.97216 7.94163 4.71912 8.03509 4.49241 8.03019C4.24247 8.0248 3.76169 7.88888 3.40429 7.7727C2.96591 7.6302 2.6175 7.55486 2.64784 7.31285C2.66364 7.1868 2.83723 7.05789 3.16859 6.92611Z" fill="white"/>
<defs>
<linearGradient id="paint0_linear_7_5592" x1="7" y1="0" x2="7" y2="13.8962" gradientUnits="userSpaceOnUse">
<stop stop-color="#2AABEE"/>
<stop offset="1" stop-color="#229ED9"/>
</linearGradient>
</defs>
</svg>
